<svg xmlns="http://www.w3.org/2000/svg" fill-rule="evenodd" clip-rule="evenodd" image-rendering="optimizeQuality" shape-rendering="geometricPrecision" text-rendering="geometricPrecision" viewBox="0 0 6.827 6.827" id="AppDevelopment"><path d="M3.95147 6.44256l-2.71485 0c-0.265445,0 -0.48128,-0.215846 -0.48128,-0.481181l4.33071e-005 -5.09609c0,-0.265335 0.215764,-0.481185 0.481193,-0.481185l2.7149 -3.93701e-006c0.265335,0 0.481224,0.215862 0.481224,0.481189l1.1811e-005 0.909378c0,0.038315 -0.0310787,0.069374 -0.0693701,0.069374 -0.038252,-3.93701e-006 -0.0693819,-0.0310472 -0.0693819,-0.0693543l1.5748e-005 -0.909398c0,-0.188835 -0.153677,-0.342449 -0.342512,-0.342449l-2.71484 0c-0.188866,0 -0.342543,0.153622 -0.342543,0.342449l4.33071e-005 5.09608c0,0.188811 0.153634,0.342465 0.342457,0.342465l2.7149 -1.1811e-005c0.188866,0 0.342484,-0.153626 0.342484,-0.342445l1.5748e-005 -0.909386c0,-0.038311 0.0310669,-0.0693622 0.0693661,-0.0693622 0.0383189,-3.93701e-006 0.0693583,0.0310512 0.0693583,0.0693701l1.1811e-005 0.90937c0,0.265335 -0.215945,0.481201 -0.481236,0.481189z" fill="#ff4e33" class="color000000 svgShape"></path><path d="M4.36334 1.12374l-3.53859 0c-.038315 0-.0694094-.0310315-.0694094-.0693425.0000433071-.038315.0310669-.0693661.0693701-.0693661l3.53863 0c.0383189 0 .0693583.0310551.0693583.0693661.000011811.0382913-.0310669.0693622-.0693583.0693425zM4.36334 5.84163l-3.53859 0c-.038315 0-.0694094-.0310433-.0694094-.0693543.0000433071-.0383307.0310669-.0693661.0693701-.0693661l3.53863-.000019685c.0383189 0 .0693583.0310748.0693583.0693858.000011811.0382992-.0310669.0693661-.0693583.0693543zM4.19583 4.98263l.335031 0 0-.286118c0-.0334646.0238425-.0621732.0568346-.0682087.171646-.0314803.331791-.097878.475945-.197339.0275827-.0190236.0647992-.015622.0885197.00805906l.202343.202398.236874-.236878-.202299-.202386c-.0237402-.023685-.027126-.060878-.00809843-.0884409.0995197-.144189.165835-.304354.197386-.476028.00601969-.0329449.034685-.0568465.0681654-.0568465l.286055-.000019685 0-.335004-.286035 0c-.0334882 0-.0621654-.0239016-.068185-.0568386-.0315315-.171646-.0979094-.331807-.197386-.476039-.019-.0275709-.0156614-.0647638.00807087-.0884331l.202327-.202386-.236874-.236906-.202311.202413c-.0237402.0236811-.0609764.027063-.0885512.00807087-.144154-.0994409-.304327-.165819-.475945-.197327-.0329921-.00605906-.0568346-.0347441-.0568346-.0682323l0-.286102-.335031 0 0 .286091c0 .0334882-.0239764.0621969-.0568583.0682441-.171563.0314724-.331787.0978898-.476063.19735-.0274449.019-.0646772.0156102-.0884016-.00805118l-.202425-.202429-.236882.236878.202472.20239c.0236772.023685.0270512.0609016.00801575.0884528-.0994449.14415-.165831.304319-.197386.476028-.00600394.0329252-.0346772.0568425-.0682756.0568425l-.286035-.000015748 0 .335004.286142 0c.0334961 0 .0621535.023937.0681693.056874.0315551.171579.0979134.331728.197386.47602.0190748.0275512.0156535.064752-.00807087.0884173l-.202417.202409.236882.236878.202465-.202413c.023685-.0236535.0609016-.0270315.0883622-.00801969.144295.0994449.304323.165858.476063.197362.0330197.0060315.0568465.0347441.0568465.0682244l.000011811.286055zm.404402.138709l-.473768 0c-.0383189 0-.0693898-.0310236-.0693898-.0693346l.000019685-.298886c-.150874-.034248-.293272-.0932598-.424539-.175984l-.211319.211429c-.0130079.0130315-.0307441.0203386-.0491654.0203386-.0183071-.000019685-.0360118-.00729528-.0490236-.020315l-.334878-.334996c-.0270945-.0270984-.0271339-.0709921-.0000433071-.0980866l.211402-.2115c-.0827559-.131287-.141787-.273598-.175988-.424425l-.298917-.000019685c-.0382598 0-.0693661-.0310433-.0693661-.0693504l0-.473732c0-.0383386.0310787-.0693622.0693661-.0693622l.298941-.00000393701c.0341929-.150933.0931811-.293272.175925-.424492l-.211476-.211449c-.0130079-.0130079-.0202323-.0306417-.0202323-.0490472.000015748-.0184213.00722441-.0360433.0202323-.0490512l.335075-.334992c.0270984-.0270945.0710236-.0270709.0981142.000011811l.211504.21148c.131256-.0827559.273472-.141736.42437-.176l.000019685-.298902c0-.038315.0310512-.0693504.0693543-.0693504l.473783-.000015748c.038315 0 .0693543.0310748.0693543.0693858l.000011811.298858c.150933.0342795.293244.0932992.42439.175984l.21152-.211453c.0130079-.0130079.0306693-.0203031.0489685-.0203031l.0000275591-.000019685c.0184173 0 .0361102.0073189.0491142.0203346l.334949.334961c.0271063.0270984.0270669.0710394-.0000275591.098126l-.211327.211402c.0827047.131287.141598.273646.175921.42452l.298823-.000015748c.0382598 0 .0693346.0310787.0693346.0693858l.0000314961.47372c0 .038315-.0311063.069378-.0694016.069378l-.298787-.00000787402c-.034311.150902-.0933346.293256-.176071.424492l.211504.211445c.0130157.0130079.0203189.0306575.0203189.0490591.00000787402.0183858-.00734646.0360354-.0203465.0490512l-.334886.334957c-.0270984.0270945-.0710866.0271063-.098189.000023622l-.211476-.211488c-.131252.0827244-.273622.141756-.424402.176008l.000011811.29889c0 .0383189-.0310787.0693622-.0693661.0693425z" fill="#ff4e33" class="color000000 svgShape"></path><path d="M4.36334 2.58221c-0.458205,0 -0.831102,0.372843 -0.831102,0.831122 4.33071e-005,0.458264 0.372858,0.831118 0.831102,0.831118 0.458272,0 0.831091,-0.372843 0.831091,-0.831118 3.54331e-005,-0.458291 -0.372854,-0.831122 -0.831091,-0.831122zm0 1.80098c-0.534831,0 -0.969839,-0.435079 -0.969839,-0.969854 4.33071e-005,-0.534791 0.434992,-0.969843 0.969839,-0.969843 0.53474,-1.5748e-005 0.969827,0.435067 0.969827,0.969843 3.54331e-005,0.53476 -0.435114,0.969854 -0.969827,0.969854z" fill="#ff4e33" class="color000000 svgShape"></path><path d="M4.48425 3.46403c-.0247638 0-.0486614-.0132913-.061185-.0366417l-.241819-.45189c-.0180394-.0337913-.00530315-.0758031.0284173-.0938819.0338583-.0180551.0758661-.00533465.0939331.0284331l.241835.451854c.0181063.0337874.00529921.0758307-.0285551.0939016-.0102953.00556693-.0215472.00822835-.032626.00822441zM4.07059 3.464c-.0147874 0-.0298898-.00477559-.0426575-.0146614l-.296811-.231677c-.0168583-.0131417-.0266535-.0333189-.0266535-.054685.0000393701-.021374.00974803-.0415512.0266063-.054685l.297035-.231673c.0300669-.0235748.0736535-.018189.097252.0120157.0236496.0302047.018189.0738031-.0120394.0973701l-.22672.176949.226748.176996c.0302402.0235787.035622.0671654.0120118.097374-.013689.0175197-.0340709.0266929-.0547717.0266772zM4.65599 3.464c-.0205945 0-.0410669-.00914567-.054689-.0266772-.023563-.0302283-.0181811-.0737913.0120512-.0973583l.226791-.177012-.226752-.176969c-.0302402-.0235472-.0356929-.0671417-.0120906-.0973504.0236378-.0302244.0672047-.0355748.097315-.0120039l.296902.231642c.0168504.0131417.0266969.0333425.0266969.0547047.000019685.0213543-.00987795.0415394-.0267362.054689l-.296839.23165c-.0126299.00988976-.0277244.0147008-.0426496.014685zM4.77717 3.71435l-.827598 0c-.038315 0-.0694094-.0310354-.0694094-.0693465.0000393701-.038311.0310709-.0693701.0693701-.0693701l.827638-.000019685c.038311 0 .0693268.0310787.0693268.0693898.0000433071.0382913-.031063.0693661-.0693661.0693661l.0000393701-.000019685zM4.77717 3.9647l-.827598 0c-.038315 0-.0694094-.0310315-.0694094-.0693425.0000393701-.038311.0310709-.0693701.0693701-.0693701l.827638-.000023622c.038311 0 .0693268.0310866.0693268.0693937.0000433071.0382913-.031063.0693701-.0693661.0693701l.0000393701-.0000275591zM3.67291 1.79908l-2.15789 0c-.0382638 0-.0693701-.0310551-.0693701-.0693661 0-.038315.0310669-.0693583.0693701-.0693583l2.15789-.000011811c.0384173 0 .0693543.031063.0693543.0693701.000015748.0382874-.0309488.0693701-.0693543.0693661zM2.69829 2.47252l-1.18327 0c-.0382638 0-.0693701-.0310433-.0693701-.0693543 0-.0383307.0310669-.0693661.0693701-.0693661l1.18327-.000015748c.0382638 0 .0693346.0310709.0693346.0693819.0000354331.0383031-.0310709.0693701-.0693346.0693543zM2.29313 3.14596l-.778114 0c-.0382638 0-.0693701-.0310512-.0693701-.0693583 0-.0383268.0310669-.0693701.0693701-.0693701l.778114-.00000787402c.038315 0 .0693543.031063.0693543.069378.000011811.0383031-.0310669.0693701-.0693543.0693583zM2.36759 3.81941l-.852575 0c-.0382638 0-.0693701-.0310394-.0693701-.0693543 0-.0383268.0310669-.0693661.0693701-.0693661l.852575-.000015748c.0382598 0 .0693268.0310787.0693268.0693819.0000393701.0382992-.0310709.0693701-.0693701.0693701l.0000433071-.000015748zM2.62387 4.49287l-1.10885 0c-.0382638 0-.0693701-.0310591-.0693701-.0693661 0-.0383189.0310669-.0693701.0693701-.0693701l1.10885 0c.0382638 0 .0693228.0310591.0693228.0693701 0 .0382874-.0310748.0693661-.0693228.0693661zM3.67291 5.16632l-2.15789 0c-.0382638 0-.0693701-.0310512-.0693701-.0693583 0-.0383268.0310669-.0693701.0693701-.0693701l2.15789-.00000787402c.0384173 0 .0693543.031063.0693543.069378.000015748.0383031-.0309488.0693661-.0693543.0693583z" fill="#ff4e33" class="color000000 svgShape"></path><rect width="6.827" height="6.827" fill="none"></rect></svg>