<svg xmlns="http://www.w3.org/2000/svg" fill-rule="evenodd" stroke-linejoin="round" stroke-miterlimit="2" clip-rule="evenodd" viewBox="0 0 64 64" id="cybersecurity"><path fill="#e51e00" fill-rule="nonzero" d="M33.28,49.232l-1.28,0.768l-1.28,-0.768c-8.512,-5.107 -13.72,-14.306 -13.72,-24.232c6.486,-1.444 11.624,-4.903 15,-11c3.376,6.097 8.514,9.556 15,11c0,9.926 -5.208,19.125 -13.72,24.232Z" class="color00bce5 svgShape"></path><path fill="#fff2f0" d="M35 31c0-1.656-1.344-3-3-3-1.656 0-3 1.344-3 3 0 1.656 1.344 3 3 3 1.656 0 3-1.344 3-3zM57 4c0 1.656 1.344 3 3 3 1.656 0 3-1.344 3-3 0-1.656-1.344-3-3-3-1.656 0-3 1.344-3 3zM50 12c0 1.656 1.344 3 3 3 1.656 0 3-1.344 3-3 0-1.656-1.344-3-3-3-1.656 0-3 1.344-3 3zM57 33c0 1.656 1.344 3 3 3 1.656 0 3-1.344 3-3 0-1.656-1.344-3-3-3-1.656 0-3 1.344-3 3zM7 4c0-1.656-1.344-3-3-3-1.656 0-3 1.344-3 3 0 1.656 1.344 3 3 3 1.656 0 3-1.344 3-3zM14 12c0-1.656-1.344-3-3-3-1.656 0-3 1.344-3 3 0 1.656 1.344 3 3 3 1.656 0 3-1.344 3-3zM7 33c0-1.656-1.344-3-3-3-1.656 0-3 1.344-3 3 0 1.656 1.344 3 3 3 1.656 0 3-1.344 3-3zM7 60c0-1.656-1.344-3-3-3-1.656 0-3 1.344-3 3 0 1.656 1.344 3 3 3 1.656 0 3-1.344 3-3zM14 52c0-1.656-1.344-3-3-3-1.656 0-3 1.344-3 3 0 1.656 1.344 3 3 3 1.656 0 3-1.344 3-3zM57 60c0 1.656 1.344 3 3 3 1.656 0 3-1.344 3-3 0-1.656-1.344-3-3-3-1.656 0-3 1.344-3 3zM50 52c0 1.656 1.344 3 3 3 1.656 0 3-1.344 3-3 0-1.656-1.344-3-3-3-1.656 0-3 1.344-3 3z" class="colorf0f0ff svgShape"></path><g fill="#000000" class="color000000 svgShape"><path fill="#ff4e33" d="M7.874,59l13.126,0c1.657,0 3,-1.343 3,-3l0,-5c0,-0.552 0.448,-1 1,-1c0.552,0 1,0.448 1,1l0,5c0,2.761 -2.239,5 -5,5l-13.126,0c-0.445,1.724 -2.012,3 -3.874,3c-2.208,0 -4,-1.792 -4,-4c0,-2.208 1.792,-4 4,-4c1.862,0 3.429,1.276 3.874,3Zm48.252,2l-13.126,0c-2.761,0 -5,-2.239 -5,-5l-0,-5c0,-0.552 0.448,-1 1,-1c0.552,0 1,0.448 1,1l-0,5c-0,1.657 1.343,3 3,3l13.126,0c0.445,-1.724 2.012,-3 3.874,-3c2.208,0 4,1.792 4,4c0,2.208 -1.792,4 -4,4c-1.862,0 -3.429,-1.276 -3.874,-3Zm-50.126,-1c0,1.104 -0.896,2 -2,2c-1.104,0 -2,-0.896 -2,-2c0,-1.104 0.896,-2 2,-2c1.104,0 2,0.896 2,2Zm52,0c0,-1.104 0.896,-2 2,-2c1.104,0 2,0.896 2,2c0,1.104 -0.896,2 -2,2c-1.104,0 -2,-0.896 -2,-2Zm-43.126,-9l1.126,0c0.552,0 1,-0.448 1,-1l-0,-6c0,-0.552 0.448,-1 1,-1c0.552,0 1,0.448 1,1l-0,6c-0,1.657 -1.343,3 -3,3l-1.126,0c-0.445,1.724 -2.012,3 -3.874,3c-2.208,0 -4,-1.792 -4,-4c-0,-2.208 1.792,-4 4,-4c1.862,0 3.429,1.276 3.874,3Zm34.252,2l-1.126,0c-1.657,0 -3,-1.343 -3,-3l-0,-6c0,-0.552 0.448,-1 1,-1c0.552,0 1,0.448 1,1l-0,6c-0,0.552 0.447,1 1,1l1.126,0c0.445,-1.724 2.012,-3 3.874,-3c2.208,0 4,1.792 4,4c-0,2.208 -1.792,4 -4,4c-1.862,0 -3.429,-1.276 -3.874,-3Zm-36.126,-1c-0,1.104 -0.896,2 -2,2c-1.104,0 -2,-0.896 -2,-2c-0,-1.104 0.896,-2 2,-2c1.104,0 2,0.896 2,2Zm38,0c-0,-1.104 0.896,-2 2,-2c1.104,0 2,0.896 2,2c-0,1.104 -0.896,2 -2,2c-1.104,0 -2,-0.896 -2,-2Zm-17.205,-1.911c8.813,-5.287 14.205,-14.812 14.205,-25.089c0,-0.469 -0.325,-0.874 -0.783,-0.976c-6.199,-1.38 -11.115,-4.681 -14.342,-10.509c-0.176,-0.318 -0.511,-0.515 -0.875,-0.515c-0.364,-0 -0.699,0.197 -0.875,0.515c-3.227,5.828 -8.142,9.129 -14.342,10.509c-0.458,0.102 -0.783,0.507 -0.783,0.976c0,10.277 5.392,19.802 14.206,25.089c-0,0 1.28,0.768 1.28,0.768c0.316,0.19 0.712,0.19 1.029,0l1.28,-0.768Zm-1.795,-34.139c-3.36,5.228 -8.12,8.362 -13.988,9.837c0.267,9.273 5.238,17.797 13.223,22.587l0.765,0.46l0.766,-0.46c2.021,-1.223 3.885,-2.688 5.531,-4.384c3.24,-3.336 5.596,-7.497 6.79,-11.991c0.53,-1.995 0.822,-4.042 0.898,-6.104l0.004,-0.108c-5.869,-1.475 -10.628,-4.609 -13.989,-9.837Zm-1,18.924c-1.724,-0.445 -3,-2.012 -3,-3.874c0,-2.208 1.792,-4 4,-4c2.208,0 4,1.792 4,4c0,1.862 -1.276,3.429 -3,3.874l0,5.126c-0,0.552 -0.448,1 -1,1c-0.552,-0 -1,-0.448 -1,-1l0,-5.126Zm25.126,-2.874c0.445,-1.724 2.012,-3 3.874,-3c2.208,0 4,1.792 4,4c0,2.208 -1.792,4 -4,4c-1.862,0 -3.429,-1.276 -3.874,-3l-6.126,0c-0.552,0 -1,-0.448 -1,-1c-0,-0.552 0.448,-1 1,-1l6.126,0Zm-48.252,2c-0.445,1.724 -2.012,3 -3.874,3c-2.208,0 -4,-1.792 -4,-4c0,-2.208 1.792,-4 4,-4c1.862,0 3.429,1.276 3.874,3l6.126,0c0.552,0 1,0.448 1,1c-0,0.552 -0.448,1 -1,1l-6.126,0Zm50.126,-1c0,-1.104 0.896,-2 2,-2c1.104,0 2,0.896 2,2c0,1.104 -0.896,2 -2,2c-1.104,0 -2,-0.896 -2,-2Zm-52,0c0,1.104 -0.896,2 -2,2c-1.104,0 -2,-0.896 -2,-2c0,-1.104 0.896,-2 2,-2c1.104,0 2,0.896 2,2Zm28,-2c0,1.104 -0.896,2 -2,2c-1.104,0 -2,-0.896 -2,-2c0,-1.104 0.896,-2 2,-2c1.104,0 2,0.896 2,2Zm15.126,-20c0.445,-1.724 2.012,-3 3.874,-3c2.208,0 4,1.792 4,4c0,2.208 -1.792,4 -4,4c-1.862,0 -3.429,-1.276 -3.874,-3l-1.126,0c-0.552,0 -1,0.447 -1,1l0,6c0,0.552 -0.448,1 -1,1c-0.552,0 -1,-0.448 -1,-1c0,0 0,-6 0,-6c0,-1.658 1.343,-3 3,-3l1.126,0Zm-34.252,2c-0.445,1.724 -2.012,3 -3.874,3c-2.208,0 -4,-1.792 -4,-4c0,-2.208 1.792,-4 4,-4c1.862,0 3.429,1.276 3.874,3l1.126,0c1.658,0 3,1.342 3,3l0,6c0,0.552 -0.448,1 -1,1c-0.552,0 -1,-0.448 -1,-1c0,0 0,-6 0,-6c0,-0.553 -0.447,-1 -1,-1l-1.126,0Zm41.252,-10c0.445,-1.724 2.012,-3 3.874,-3c2.208,0 4,1.792 4,4c0,2.208 -1.792,4 -4,4c-1.862,0 -3.429,-1.276 -3.874,-3l-13.126,0c-1.657,0 -3,1.343 -3,3l0,8c0,0.552 -0.448,1 -1,1c-0.552,0 -1,-0.448 -1,-1c0,0 0,-8 0,-8c0,-2.761 2.239,-5 5,-5l13.126,0Zm-48.252,2c-0.445,1.724 -2.012,3 -3.874,3c-2.208,0 -4,-1.792 -4,-4c0,-2.208 1.792,-4 4,-4c1.862,0 3.429,1.276 3.874,3l13.126,0c2.761,0 5,2.239 5,5l0,8c0,0.552 -0.448,1 -1,1c-0.552,0 -1,-0.448 -1,-1c0,0 0,-8 0,-8c0,-1.657 -1.343,-3 -3,-3l-13.126,0Zm43.126,7c0,-1.104 0.896,-2 2,-2c1.104,0 2,0.896 2,2c0,1.104 -0.896,2 -2,2c-1.104,0 -2,-0.896 -2,-2Zm-38,0c0,1.104 -0.896,2 -2,2c-1.104,0 -2,-0.896 -2,-2c0,-1.104 0.896,-2 2,-2c1.104,0 2,0.896 2,2Zm45,-8c0,-1.104 0.896,-2 2,-2c1.104,0 2,0.896 2,2c0,1.104 -0.896,2 -2,2c-1.104,0 -2,-0.896 -2,-2Zm-52,0c0,1.104 -0.896,2 -2,2c-1.104,0 -2,-0.896 -2,-2c0,-1.104 0.896,-2 2,-2c1.104,0 2,0.896 2,2Z" class="color1b4a99 svgShape"></path></g></svg>