<svg xmlns="http://www.w3.org/2000/svg" viewBox="0 0 96 96" id="Database"><path d="M75.46,17.38a53.25,53.25,0,0,0-8.65.69c-6.86-5.9-30.77-5.9-37.62,0a53.25,53.25,0,0,0-8.65-.69C10.6,17.38,0,20.05,0,25V71c0,5,10.56,7.62,20.5,7.62a55.23,55.23,0,0,0,7-.44v.57c0,5,10.56,7.62,20.5,7.62s20.5-2.67,20.5-7.62v-.57a55.23,55.23,0,0,0,7,.44C85.4,78.62,96,76,96,71V25C96,20.05,85.4,17.38,75.46,17.38Zm0,2c9.27,0,16.48,2.27,18.14,4.62a1.58,1.58,0,0,1,0,2c-1.65,2.35-8.87,4.63-18.15,4.63a51.86,51.86,0,0,1-7-.45c0-9.86.1-9.41-.29-10.31A52.22,52.22,0,0,1,75.46,19.38ZM93.61,37.5c-1.65,2.35-8.87,4.63-18.15,4.63a51.86,51.86,0,0,1-7-.45V32.19a55.23,55.23,0,0,0,7,.44c7.32,0,15-1.45,18.5-4.19C94,37.51,94.07,36.82,93.61,37.5Zm0,11.5c-1.65,2.35-8.87,4.62-18.15,4.62a51.86,51.86,0,0,1-7-.45V43.69a55.23,55.23,0,0,0,7,.44c7.32,0,15-1.45,18.5-4.2C94,49,94.07,48.32,93.61,49Zm0,11.5c-1.66,2.35-8.87,4.62-18.14,4.62a51.86,51.86,0,0,1-7-.45V55.18a55.23,55.23,0,0,0,7,.44c7.32,0,15-1.45,18.5-4.19C94,60.56,94.06,59.87,93.6,60.5ZM57.35,72a52.46,52.46,0,0,1-18.7,0c-4.53-.87-7.75-2.31-8.79-3.78a1.7,1.7,0,0,1-.36-1V59.18c7.08,5.57,30,5.53,37,0V60.5c0,1,.28,2-2.26,3.37C64.11,63.87,59.46,67,48,67a1,1,0,0,0,0,2,55.27,55.27,0,0,0,7-.44c.85-.11,1.75-.27,2-.27v0c3-.52,7.12-1.57,9.53-3.46,0,2.75.09,2.87-.36,3.49C65.1,69.72,61.88,71.16,57.35,72ZM2,57.09C4.41,58.93,8.32,60,11.27,60.5a48.52,48.52,0,0,0,6.59.73,1,1,0,0,0,1-1,1,1,0,0,0-.95-1,47.57,47.57,0,0,1-6.48-.73C5.63,57.42,2,55.42,2,53.67V51.43c3.52,2.74,11.18,4.19,18.5,4.19a55.23,55.23,0,0,0,7-.44v9.49a51.86,51.86,0,0,1-7,.45c-9.27,0-16.48-2.27-18.14-4.62C1.93,59.85,2,59.62,2,57.09ZM2,45.68c2.2,1.74,6,2.79,8.79,3.32a49.63,49.63,0,0,0,7,.81,1,1,0,0,0,1-1,1,1,0,0,0-.95-1A46.1,46.1,0,0,1,11,47c-5.56-1.09-9-3-9-4.75V39.93c3.52,2.75,11.18,4.2,18.5,4.2a55.23,55.23,0,0,0,7-.44v9.48a51.86,51.86,0,0,1-7,.45C11.26,53.62,4,51.35,2.39,49,2,48.34,2,48.26,2,45.68ZM2,34.26C4.18,36,7.73,37,10.41,37.5a50.23,50.23,0,0,0,7.46.9,1,1,0,0,0,0-2,46.74,46.74,0,0,1-7.34-.9C5.28,34.39,2,32.5,2,30.84v-2.4c3.52,2.74,11.18,4.19,18.5,4.19a55.23,55.23,0,0,0,7-.44v9.49a51.86,51.86,0,0,1-7,.45c-9.28,0-16.5-2.28-18.15-4.63C1.94,36.83,2,36.69,2,34.26ZM29.5,24.69c7.13,5.61,30,5.5,37,0v2.4c0,1.71-3.17,3.08-4.82,3.65-.17,0-4.86,2-13.68,2a1,1,0,1,0,0,2c5.37,0,14.25-.91,18.5-4.19v2.23c0,2.51-6.66,4.44-9.15,4.79-.25.06-1.79.31-2.08.35a48.19,48.19,0,0,1-7.27.49,50,50,0,0,1-9.35-.84c-2.48-.35-9.15-2.27-9.15-4.79Zm28,35.81A52.25,52.25,0,0,1,39,60.6c-2.67-.41-9.53-2.28-9.53-4.85V47.68a19.39,19.39,0,0,0,7.08,3,53.3,53.3,0,0,0,22.84,0,19.39,19.39,0,0,0,7.08-3v2.24c0,1.79-3.36,3.17-5.07,3.73A41.19,41.19,0,0,1,48,55.54a1,1,0,0,0,0,2c5.37,0,14.26-.91,18.5-4.19,0,2.73.08,2.8-.36,3.4C64.68,58.78,60,60,57.5,60.5Zm-28-24.31c7.18,5.65,30.07,5.45,37,0V38.5c0,1.74-3.27,3.13-4.93,3.69A44,44,0,0,1,48,44.13a1,1,0,0,0-1,1,1,1,0,0,0,1,1c5.32,0,14.33-.93,18.5-4.2,0,2.44.11,2.64-.35,3.32-1.51,2.1-6.77,3.49-9.18,3.86A53.21,53.21,0,0,1,41,49.43c-.36,0-2.46-.39-2.58-.43-2.47-.48-7.14-1.71-8.6-3.75C29.38,44.56,29.5,45.16,29.5,36.19ZM64.05,18.61a6.09,6.09,0,0,1,2.07,1.61l0,0c2.08,2.86-5.49,5.32-8.79,5.79-.25.06-1.79.31-2.08.35a48.19,48.19,0,0,1-7.27.49A50,50,0,0,1,38.65,26c-3.42-.49-10.86-2.95-8.79-5.79A5.48,5.48,0,0,1,32,18.61C39.43,14.65,56.57,14.64,64.05,18.61Zm-43.51.77a52.22,52.22,0,0,1,7.25.49c-.39.9-.29.41-.29,10.31C14.21,32-.45,27.92,2.4,24,4.06,21.65,11.27,19.38,20.54,19.38ZM2,71V68.49c3.17,2.47,9.63,3.87,15.78,4.15a1,1,0,0,0,1-1,1,1,0,0,0-.95-1C8.42,70.2,2.05,67.41,2,65.09V62.93c3.52,2.74,11.18,4.19,18.5,4.19a55.23,55.23,0,0,0,7-.44v9.49C15.35,77.82,2,74.63,2,71ZM66.5,78.75c0,2.65-7.91,5.62-18.5,5.62s-18.5-3-18.5-5.62V70.68c7.13,5.55,29.87,5.55,37,0v2.07c0,1.83-3.57,3.25-5.32,3.81A43.84,43.84,0,0,1,48,78.37a1,1,0,0,0,0,2c5.34,0,14.31-.93,18.5-4.19ZM94,71c0,3.66-13.32,6.82-25.46,5.17V66.68a55.23,55.23,0,0,0,7,.44c7.32,0,15-1.45,18.5-4.19Z" fill="#ff4e33" class="color000000 svgShape"></path><path d="M91.27 35.73a14.53 14.53 0 001.58-.8 1 1 0 10-1-1.72 13.44 13.44 0 01-1.37.69A1 1 0 0091.27 35.73zM86.41 37.24a18.24 18.24 0 002-.5 1 1 0 00-.56-1.92c-.54.16-1.11.31-1.7.44A1 1 0 0086.41 37.24zM81.15 38.09c.24 0 1.75-.2 2.14-.26a1 1 0 00.85-1.13A1 1 0 0083 35.85c-.63.1-1.28.18-2 .25a1 1 0 00.1 2zM91.27 47.22a14.54 14.54 0 001.58-.79 1 1 0 00-1-1.73 13.44 13.44 0 01-1.37.69A1 1 0 0091.27 47.22zM86.41 48.73a19.29 19.29 0 002-.49 1 1 0 00-.56-1.92c-1.8.5-1.9.42-2.16.68A1 1 0 0086.41 48.73zM81.15 49.59c.16 0 1.64-.19 2.14-.26a1 1 0 10-.29-2q-.94.13-2 .24a1 1 0 00.1 2zM91.27 58.72a13.67 13.67 0 001.58-.8 1 1 0 10-1-1.72 13.44 13.44 0 01-1.37.69A1 1 0 0091.27 58.72zM86.41 60.23a17.56 17.56 0 002-.5 1 1 0 00.68-1.23 1 1 0 00-1.24-.69c-.54.16-1.11.31-1.7.44a1 1 0 00.23 2zM81.15 61.08c.26 0 1.76-.2 2.14-.26a1 1 0 00.85-1.13A1 1 0 0083 58.84c-.63.1-1.28.18-2 .25a1 1 0 00-.8 1.41A1 1 0 0081.15 61.08zM90.87 70.3a1.1 1.1 0 00.4-.08c.58-.26 1.11-.53 1.58-.8a1 1 0 00-1-1.73 11.64 11.64 0 01-1.37.69A1 1 0 0090.87 70.3zM86.41 71.72a20.76 20.76 0 002-.49 1 1 0 00-.56-1.92c-.54.16-1.11.3-1.7.44A1 1 0 0086.41 71.72zM81.15 72.58c.23 0 1.69-.19 2.14-.26a1 1 0 10-.29-2q-.94.14-2 .24a1 1 0 00.1 2zM30.61 42.68a16.72 16.72 0 001.58.8 1 1 0 10.8-1.83c-1.22-.54-1.3-.72-1.43-.72a1 1 0 00-1.22.27.31.31 0 00-.09.11A1 1 0 0030.61 42.68zM35 44.49a17.71 17.71 0 002 .5 1 1 0 00.22-2c-.59-.13-1.15-.28-1.69-.44A1 1 0 0035 44.49zM40.17 45.58c.35.05 1.91.26 2.14.26a1 1 0 00.11-2c-.67-.06-1.32-.15-2-.24a1 1 0 00-.29 2zM33.52 53.7c-.2-.59-.63-.51-1.9-1.25a1 1 0 00-1 1.72c.51.29 1 .56 1.58.8A1 1 0 0033.52 53.7zM37.28 54.51c-.59-.14-1.15-.29-1.69-.44A1 1 0 1035 56c.57.16 1.18.32 1.8.47a1 1 0 001.2-.75A1 1 0 0037.28 54.51zM42.42 55.34c-.67-.07-1.32-.15-2-.24a1 1 0 00-.29 2c.67.09 1.34.18 2 .25a1 1 0 001.1-.89A1 1 0 0042.42 55.34zM33.52 65.2A.72.72 0 0033.4 65c-.3-.4-.47-.26-1.78-1l-.05 0h0a1 1 0 00-1.22.27.31.31 0 00-.09.11 1 1 0 00.36 1.37 16.86 16.86 0 001.58.8A1 1 0 0033.52 65.2zM37.28 66c-.59-.13-1.15-.28-1.69-.44A1 1 0 1035 67.48c.57.17 1.18.33 1.8.47a1 1 0 00.45-2zM42.42 66.84c-.51 0-1.2-.13-2-.25a1 1 0 00-.89 1.66c.32.36.68.33 1.46.44.1 0 1.13.14 1.28.14a1 1 0 00.11-2zM33 76.13c-1.19-.52-1.33-.71-1.43-.71a1 1 0 00-1.22.27 1 1 0 00.27 1.48c.65.36 1 .53 1.58.79a1 1 0 10.8-1.83zM37.28 77.5c-.59-.14-1.15-.29-1.69-.44A1 1 0 1035 79c.57.16 1.18.32 1.8.47A1 1 0 0038 78.7 1 1 0 0037.28 77.5zM42.42 78.33c-.67-.07-1.32-.15-2-.24a1 1 0 00-.29 2c.67.09 1.34.18 2 .25a1 1 0 001.1-.89A1 1 0 0042.42 78.33z" fill="#ff4e33" class="color000000 svgShape"></path></svg>