<svg xmlns="http://www.w3.org/2000/svg" enable-background="new 0 0 64 64" viewBox="0 0 64 64" id="NetworkOperation"><path d="M60.49,28.48c-1.77,0-3.23,1.32-3.47,3.03h-8.93c-0.05-1.51-0.29-2.97-0.72-4.34h4.33c0.13,0,0.26-0.06,0.35-0.15
		l2.32-2.32c0.55,0.42,1.22,0.68,1.96,0.68c1.79,0,3.25-1.45,3.25-3.24c0-1.79-1.46-3.24-3.25-3.24c-1.78,0-3.24,1.45-3.24,3.24
		c0,0.69,0.22,1.33,0.6,1.86l-2.19,2.18h-4.49c-0.8-2.04-1.99-3.88-3.49-5.43l0.94-0.94c0.61,0.5,1.38,0.81,2.23,0.81
		c1.99,0,3.61-1.62,3.61-3.61c0-1.99-1.62-3.61-3.61-3.61s-3.6,1.62-3.6,3.61c0,0.78,0.25,1.5,0.68,2.1l-0.97,0.97
		c-1.3-1.18-2.77-2.15-4.4-2.86v-4.77l2.2-2.39c0.52,0.39,1.15,0.63,1.85,0.63c1.7,0,3.08-1.38,3.08-3.08
		c0-1.69-1.38-3.07-3.08-3.07s-3.08,1.38-3.08,3.07c0,0.65,0.2,1.24,0.54,1.74l-2.36,2.57c-0.09,0.09-0.13,0.21-0.13,0.34v4.59
		c-1.55-0.56-3.2-0.88-4.92-0.93V6.98c1.7-0.24,3.02-1.69,3.02-3.46C35.52,1.58,33.94,0,32,0s-3.51,1.58-3.51,3.52
		c0,1.77,1.32,3.22,3.03,3.46v8.94c-1.73,0.05-3.38,0.37-4.93,0.93v-4.59c0-0.13-0.05-0.25-0.13-0.34l-2.37-2.57
		c0.34-0.5,0.54-1.09,0.54-1.74c0-1.69-1.38-3.07-3.07-3.07c-1.7,0-3.08,1.38-3.08,3.07c0,1.7,1.38,3.08,3.08,3.08
		c0.69,0,1.33-0.24,1.84-0.63l2.2,2.39v4.77c-1.75,0.77-3.34,1.84-4.71,3.14l-1.26-1.26c0.43-0.59,0.68-1.31,0.68-2.09
		c0-1.99-1.61-3.61-3.6-3.61s-3.61,1.62-3.61,3.61c0,1.99,1.62,3.61,3.61,3.61c0.85,0,1.62-0.31,2.24-0.81l1.25,1.26
		c-1.36,1.48-2.46,3.2-3.2,5.11h-5.09l-2.19-2.19c0.37-0.52,0.59-1.16,0.59-1.85c0-1.79-1.46-3.24-3.24-3.24
		c-1.79,0-3.25,1.45-3.25,3.24c0,1.79,1.46,3.24,3.25,3.24c0.74,0,1.41-0.26,1.96-0.68l2.32,2.32c0.1,0.09,0.22,0.15,0.35,0.15h4.94
		c-0.44,1.37-0.68,2.83-0.72,4.34H6.99c-0.25-1.71-1.7-3.03-3.47-3.03C1.58,28.48,0,30.06,0,32s1.58,3.52,3.52,3.52
		c1.77,0,3.22-1.32,3.47-3.03h8.93c0.06,1.87,0.43,3.66,1.07,5.32h-3.9c-0.89,0-1.75,0.36-2.38,0.99l-1.66,1.66
		c-0.54-0.45-1.22-0.74-1.98-0.74c-1.71,0-3.1,1.39-3.1,3.09c0,1.71,1.39,3.1,3.1,3.1c1.7,0,3.09-1.39,3.09-3.1
		c0-0.59-0.17-1.13-0.46-1.6l1.71-1.72c0.44-0.44,1.05-0.7,1.68-0.7h4.33c0.72,1.55,1.67,2.95,2.82,4.18l-1.78,1.79
		c-0.55-0.37-1.22-0.59-1.94-0.59c-1.9,0-3.45,1.54-3.45,3.45c0,1.9,1.55,3.45,3.45,3.45c1.91,0,3.45-1.55,3.45-3.45
		c0-0.84-0.3-1.59-0.79-2.18l1.76-1.77c1.35,1.29,2.93,2.35,4.66,3.11v5.87l-2.19,2.4c-0.52-0.4-1.16-0.64-1.85-0.64
		c-1.7,0-3.08,1.38-3.08,3.08c0,1.69,1.38,3.07,3.08,3.07c1.69,0,3.07-1.38,3.07-3.07c0-0.65-0.2-1.24-0.54-1.74l2.37-2.57
		c0.08-0.09,0.13-0.21,0.13-0.33v-5.7c1.55,0.56,3.2,0.88,4.93,0.93v8.94c-1.71,0.24-3.03,1.69-3.03,3.46
		c0,1.94,1.57,3.52,3.51,3.52s3.52-1.58,3.52-3.52c0-1.76-1.32-3.22-3.02-3.46v-8.94c1.72-0.05,3.37-0.37,4.92-0.93v5.7
		c0,0.12,0.04,0.24,0.13,0.33l2.36,2.57c-0.34,0.5-0.54,1.09-0.54,1.74c0,1.69,1.38,3.07,3.08,3.07s3.08-1.38,3.08-3.07
		c0-1.7-1.38-3.08-3.08-3.08c-0.7,0-1.33,0.24-1.85,0.64l-2.2-2.4v-5.87c1.74-0.76,3.32-1.82,4.67-3.11l1.76,1.76
		c-0.49,0.6-0.8,1.35-0.8,2.19c0,1.9,1.55,3.45,3.45,3.45c1.9,0,3.45-1.55,3.45-3.45c0-1.91-1.55-3.45-3.45-3.45
		c-0.71,0-1.38,0.22-1.93,0.59l-1.78-1.79c1.14-1.23,2.1-2.64,2.82-4.18h4.33c0.63,0,1.23,0.25,1.68,0.7l1.71,1.71
		c-0.29,0.47-0.47,1.02-0.47,1.61c0,1.71,1.39,3.1,3.1,3.1c1.71,0,3.09-1.39,3.09-3.1c0-1.7-1.38-3.09-3.09-3.09
		c-0.76,0-1.44,0.28-1.98,0.74L53.3,38.8c-0.64-0.64-1.49-0.99-2.38-0.99h-3.91c0.64-1.66,1.02-3.45,1.08-5.32h8.93
		c0.24,1.71,1.7,3.03,3.47,3.03c1.93,0,3.51-1.58,3.51-3.52S62.42,28.48,60.49,28.48z M56.33,19.88c1.25,0,2.26,1.01,2.26,2.26
		c0,1.24-1.01,2.26-2.26,2.26c-1.24,0-2.25-1.02-2.25-2.26C54.08,20.89,55.09,19.88,56.33,19.88z M46.69,14.38
		c1.45,0,2.63,1.18,2.63,2.63c0,1.44-1.18,2.62-2.63,2.62c-1.44,0-2.62-1.18-2.62-2.62C44.07,15.56,45.25,14.38,46.69,14.38z
		 M42.45,5.52c1.15,0,2.09,0.94,2.09,2.09c0,1.16-0.94,2.1-2.09,2.1s-2.09-0.94-2.09-2.1C40.36,6.46,41.3,5.52,42.45,5.52z
		 M21.56,9.71c-1.16,0-2.1-0.94-2.1-2.1c0-1.15,0.94-2.09,2.1-2.09c1.15,0,2.09,0.94,2.09,2.09C23.65,8.77,22.71,9.71,21.56,9.71z
		 M16.71,19.63c-1.45,0-2.63-1.18-2.63-2.62c0-1.45,1.18-2.63,2.63-2.63c1.44,0,2.62,1.18,2.62,2.63
		C19.33,18.45,18.15,19.63,16.71,19.63z M7.07,24.4c-1.25,0-2.26-1.02-2.26-2.26c0-1.25,1.01-2.26,2.26-2.26
		c1.24,0,2.25,1.01,2.25,2.26C9.32,23.38,8.31,24.4,7.07,24.4z M6.05,32.01c0,1.39-1.14,2.52-2.53,2.52c-1.4,0-2.53-1.13-2.53-2.53
		c0-1.4,1.13-2.53,2.53-2.53c1.39,0,2.53,1.13,2.53,2.52V32.01z M7.07,44.92c-1.17,0-2.11-0.94-2.11-2.11
		c0-1.16,0.94-2.11,2.11-2.11c1.16,0,2.11,0.95,2.11,2.11C9.18,43.98,8.23,44.92,7.07,44.92z M16.52,50.08
		c-1.36,0-2.46-1.1-2.46-2.46s1.1-2.47,2.46-2.47s2.47,1.11,2.47,2.47S17.88,50.08,16.52,50.08z M21.56,59.58
		c-1.16,0-2.1-0.94-2.1-2.09c0-1.16,0.94-2.1,2.1-2.1c1.15,0,2.09,0.94,2.09,2.1C23.65,58.64,22.71,59.58,21.56,59.58z M42.45,55.39
		c1.15,0,2.09,0.94,2.09,2.1c0,1.15-0.94,2.09-2.09,2.09s-2.09-0.94-2.09-2.09C40.36,56.33,41.3,55.39,42.45,55.39z M47.48,45.15
		c1.36,0,2.47,1.11,2.47,2.47s-1.11,2.46-2.47,2.46c-1.36,0-2.46-1.1-2.46-2.46S46.12,45.15,47.48,45.15z M56.94,40.7
		c1.16,0,2.11,0.95,2.11,2.11c0,1.17-0.95,2.11-2.11,2.11c-1.16,0-2.11-0.94-2.11-2.11C54.83,41.65,55.78,40.7,56.94,40.7z
		 M29.47,3.52c0-1.4,1.14-2.54,2.53-2.54c1.4,0,2.53,1.14,2.53,2.54c0,1.39-1.13,2.53-2.53,2.53C30.61,6.05,29.47,4.91,29.47,3.52z
		 M34.53,60.48c0,1.4-1.13,2.54-2.53,2.54c-1.39,0-2.53-1.14-2.53-2.54c0-1.39,1.14-2.53,2.53-2.53
		C33.4,57.95,34.53,59.09,34.53,60.48z M32.02,47.12c-0.01,0-0.01,0-0.01,0c-0.01,0-0.01,0-0.01,0c-8.34,0-15.12-6.78-15.12-15.12
		c0-8.34,6.78-15.12,15.12-15.12c0,0,0,0,0.01,0c0,0,0,0,0.01,0c8.33,0.01,15.11,6.79,15.11,15.12
		C47.13,40.33,40.35,47.11,32.02,47.12z M60.49,34.53c-1.4,0-2.53-1.13-2.54-2.52c0-0.01,0.01-0.01,0.01-0.01s-0.01,0-0.01-0.01
		c0.01-1.39,1.14-2.52,2.54-2.52c1.39,0,2.53,1.13,2.53,2.53C63.02,33.4,61.88,34.53,60.49,34.53z" fill="#ff4e33" class="colorff4e33 svgShape"></path><circle cx="7.07" cy="42.81" r="2.11" fill="#ff2200" class="colorffcd00 svgShape"></circle><path fill="#f9391c" d="M18.99 47.62c0 1.36-1.11 2.46-2.47 2.46s-2.46-1.1-2.46-2.46 1.1-2.47 2.46-2.47S18.99 46.26 18.99 47.62zM23.65 57.49c0 1.15-.94 2.09-2.09 2.09-1.16 0-2.1-.94-2.1-2.09 0-1.16.94-2.1 2.1-2.1C22.71 55.39 23.65 56.33 23.65 57.49zM34.53 60.48c0 1.4-1.13 2.54-2.53 2.54-1.39 0-2.53-1.14-2.53-2.54 0-1.39 1.14-2.53 2.53-2.53C33.4 57.95 34.53 59.09 34.53 60.48z" class="color1cc0f9 svgShape"></path><path fill="#b05142" d="M44.54 57.49c0 1.15-.94 2.09-2.09 2.09s-2.09-.94-2.09-2.09c0-1.16.94-2.1 2.09-2.1S44.54 56.33 44.54 57.49zM49.95 47.62c0 1.36-1.11 2.46-2.47 2.46-1.36 0-2.46-1.1-2.46-2.46s1.1-2.47 2.46-2.47C48.84 45.15 49.95 46.26 49.95 47.62z" class="color42b05c svgShape"></path><circle cx="56.94" cy="42.81" r="2.11" fill="#ff2200" class="colorffcd00 svgShape"></circle><path fill="#ff2200" d="M63.02 32c0 1.4-1.14 2.53-2.53 2.53-1.4 0-2.53-1.13-2.54-2.52 0-.01.01-.01.01-.01s-.01 0-.01-.01c.01-1.39 1.14-2.52 2.54-2.52C61.88 29.47 63.02 30.6 63.02 32zM58.59 22.14c0 1.24-1.01 2.26-2.26 2.26-1.24 0-2.25-1.02-2.25-2.26 0-1.25 1.01-2.26 2.25-2.26C57.58 19.88 58.59 20.89 58.59 22.14z" class="colorffcd00 svgShape"></path><path fill="#b05142" d="M49.32 17.01c0 1.44-1.18 2.62-2.63 2.62-1.44 0-2.62-1.18-2.62-2.62 0-1.45 1.18-2.63 2.62-2.63C48.14 14.38 49.32 15.56 49.32 17.01zM44.54 7.61c0 1.16-.94 2.1-2.09 2.1s-2.09-.94-2.09-2.1c0-1.15.94-2.09 2.09-2.09S44.54 6.46 44.54 7.61z" class="color42b05c svgShape"></path><path fill="#f9391c" d="M34.53 3.52c0 1.39-1.13 2.53-2.53 2.53-1.39 0-2.53-1.14-2.53-2.53 0-1.4 1.14-2.54 2.53-2.54C33.4.98 34.53 2.12 34.53 3.52zM23.65 7.61c0 1.16-.94 2.1-2.09 2.1-1.16 0-2.1-.94-2.1-2.1 0-1.15.94-2.09 2.1-2.09C22.71 5.52 23.65 6.46 23.65 7.61zM19.33 17.01c0 1.44-1.18 2.62-2.62 2.62-1.45 0-2.63-1.18-2.63-2.62 0-1.45 1.18-2.63 2.63-2.63C18.15 14.38 19.33 15.56 19.33 17.01z" class="color1cc0f9 svgShape"></path><path fill="#ff2200" d="M9.32 22.14c0 1.24-1.01 2.26-2.25 2.26-1.25 0-2.26-1.02-2.26-2.26 0-1.25 1.01-2.26 2.26-2.26C8.31 19.88 9.32 20.89 9.32 22.14zM6.05 31.99v.02c0 1.39-1.14 2.52-2.53 2.52-1.4 0-2.53-1.13-2.53-2.53 0-1.4 1.13-2.53 2.53-2.53C4.91 29.47 6.05 30.6 6.05 31.99z" class="colorffcd00 svgShape"></path><path fill="#cec5c4" d="M32.02,16.88c-0.01,0-0.01,0-0.01,0c-0.01,0-0.01,0-0.01,0c-8.34,0-15.12,6.78-15.12,15.12
		c0,8.34,6.78,15.12,15.12,15.12c0,0,0,0,0.01,0c0,0,0,0,0.01,0c8.33-0.01,15.11-6.79,15.11-15.12
		C47.13,23.67,40.35,16.89,32.02,16.88z M43.45,34.36h-1.64c-0.25,1.03-0.65,2-1.21,2.91l1.17,1.16c0.24,0.24,0.24,0.63,0,0.87
		l-2.47,2.47c-0.09,0.09-0.3,0.18-0.43,0.18c-0.17,0-0.32-0.07-0.44-0.19l-1.16-1.16c-0.91,0.56-1.88,0.96-2.91,1.2v1.65
		c0,0.34-0.27,0.62-0.61,0.62h-3.49c-0.34,0-0.62-0.28-0.62-0.62V41.8c-1.03-0.24-2-0.64-2.9-1.2l-1.17,1.17
		c-0.09,0.09-0.3,0.18-0.43,0.18c-0.17,0-0.32-0.07-0.44-0.19l-2.46-2.46c-0.24-0.24-0.24-0.63,0-0.87l1.16-1.16
		c-0.55-0.91-0.96-1.88-1.2-2.91h-1.65c-0.34,0-0.62-0.28-0.62-0.62v-3.48c0-0.34,0.28-0.62,0.62-0.62h1.65
		c0.24-1.03,0.65-2,1.2-2.9l-1.16-1.17c-0.24-0.24-0.24-0.63,0-0.87l2.46-2.46c0.09-0.1,0.31-0.19,0.44-0.19
		c0.16,0,0.32,0.07,0.44,0.19l1.16,1.16c0.9-0.55,1.87-0.96,2.9-1.2v-1.65c0-0.34,0.28-0.62,0.62-0.62h3.49
		c0.34,0,0.61,0.28,0.61,0.62v1.65c1.03,0.24,2.01,0.65,2.91,1.2l1.16-1.16c0.09-0.1,0.31-0.19,0.44-0.19
		c0.16,0,0.32,0.07,0.43,0.19l2.47,2.46c0.24,0.24,0.24,0.63,0,0.87l-1.17,1.17c0.56,0.9,0.96,1.87,1.21,2.9h1.64
		c0.34,0,0.62,0.28,0.62,0.62v3.48C44.07,34.08,43.79,34.36,43.45,34.36z" class="colorcec4c4 svgShape"></path><path d="M43.45,29.64h-1.64c-0.25-1.03-0.65-2-1.21-2.9l1.17-1.17c0.24-0.24,0.24-0.63,0-0.87l-2.47-2.46
		c-0.11-0.12-0.27-0.19-0.43-0.19c-0.13,0-0.35,0.09-0.44,0.19l-1.16,1.16c-0.9-0.55-1.88-0.96-2.91-1.2v-1.65
		c0-0.34-0.27-0.62-0.61-0.62h-3.49c-0.34,0-0.62,0.28-0.62,0.62v1.65c-1.03,0.24-2,0.65-2.9,1.2l-1.16-1.16
		c-0.12-0.12-0.28-0.19-0.44-0.19c-0.13,0-0.35,0.09-0.44,0.19l-2.46,2.46c-0.24,0.24-0.24,0.63,0,0.87l1.16,1.17
		c-0.55,0.9-0.96,1.87-1.2,2.9h-1.65c-0.34,0-0.62,0.28-0.62,0.62v3.48c0,0.34,0.28,0.62,0.62,0.62h1.65c0.24,1.03,0.65,2,1.2,2.91
		l-1.16,1.16c-0.24,0.24-0.24,0.63,0,0.87l2.46,2.46c0.12,0.12,0.27,0.19,0.44,0.19c0.13,0,0.34-0.09,0.43-0.18l1.17-1.17
		c0.9,0.56,1.87,0.96,2.9,1.2v1.65c0,0.34,0.28,0.62,0.62,0.62h3.49c0.34,0,0.61-0.28,0.61-0.62V41.8c1.03-0.24,2-0.64,2.91-1.2
		l1.16,1.16c0.12,0.12,0.27,0.19,0.44,0.19c0.13,0,0.34-0.09,0.43-0.18l2.47-2.47c0.24-0.24,0.24-0.63,0-0.87l-1.17-1.16
		c0.56-0.91,0.96-1.88,1.21-2.91h1.64c0.34,0,0.62-0.28,0.62-0.62v-3.48C44.07,29.92,43.79,29.64,43.45,29.64z M43.09,33.38h-1.58
		c-0.29,0-0.54,0.19-0.6,0.48c-0.23,1.12-0.67,2.17-1.29,3.12c-0.16,0.24-0.13,0.57,0.08,0.77l1.11,1.11l-1.94,1.95l-1.11-1.11
		c-0.21-0.21-0.53-0.24-0.78-0.08c-0.95,0.62-2,1.05-3.12,1.29c-0.28,0.06-0.48,0.31-0.48,0.6v1.57h-2.75v-1.57
		c0-0.29-0.21-0.54-0.49-0.6c-1.12-0.24-2.17-0.67-3.12-1.3c-0.24-0.15-0.56-0.12-0.77,0.09l-1.11,1.11l-1.95-1.95l1.12-1.11
		c0.2-0.2,0.23-0.53,0.08-0.77c-0.63-0.95-1.06-2-1.29-3.11c-0.06-0.29-0.31-0.49-0.6-0.49h-1.58v-2.75h1.58
		c0.29,0,0.54-0.21,0.6-0.49c0.23-1.12,0.66-2.17,1.28-3.12c0.17-0.24,0.13-0.57-0.07-0.77l-1.12-1.11l1.95-1.95l1.11,1.11
		c0.21,0.21,0.52,0.24,0.77,0.08c0.95-0.62,2-1.05,3.12-1.29c0.28-0.05,0.49-0.31,0.49-0.6v-1.57h2.75v1.57
		c0,0.29,0.2,0.55,0.49,0.6c1.11,0.24,2.16,0.67,3.12,1.3c0.24,0.15,0.56,0.12,0.76-0.09l1.12-1.11l1.94,1.95l-1.11,1.11
		c-0.21,0.2-0.24,0.53-0.08,0.77c0.62,0.95,1.06,2,1.29,3.12c0.06,0.29,0.31,0.49,0.6,0.49h1.58V33.38z" fill="#000000" class="color000000 svgShape"></path><path fill="#ff4e33" d="M41.51,30.63c-0.29,0-0.54-0.2-0.6-0.49c-0.23-1.12-0.67-2.17-1.29-3.12c-0.16-0.24-0.13-0.57,0.08-0.77
		l1.11-1.11l-1.94-1.95l-1.12,1.11c-0.2,0.21-0.52,0.24-0.76,0.09c-0.96-0.63-2.01-1.06-3.12-1.3c-0.29-0.05-0.49-0.31-0.49-0.6
		v-1.57h-2.75v1.57c0,0.29-0.21,0.55-0.49,0.6c-1.12,0.24-2.17,0.67-3.12,1.29c-0.25,0.16-0.56,0.13-0.77-0.08l-1.11-1.11
		l-1.95,1.95l1.12,1.11c0.2,0.2,0.24,0.53,0.07,0.77c-0.62,0.95-1.05,2-1.28,3.12c-0.06,0.28-0.31,0.49-0.6,0.49h-1.58v2.75h1.58
		c0.29,0,0.54,0.2,0.6,0.49c0.23,1.11,0.66,2.16,1.29,3.11c0.15,0.24,0.12,0.57-0.08,0.77l-1.12,1.11l1.95,1.95l1.11-1.11
		c0.21-0.21,0.53-0.24,0.77-0.09c0.95,0.63,2,1.06,3.12,1.3c0.28,0.06,0.49,0.31,0.49,0.6v1.57h2.75v-1.57c0-0.29,0.2-0.54,0.48-0.6
		c1.12-0.24,2.17-0.67,3.12-1.29c0.25-0.16,0.57-0.13,0.78,0.08l1.11,1.11l1.94-1.95l-1.11-1.11c-0.21-0.2-0.24-0.53-0.08-0.77
		c0.62-0.95,1.06-2,1.29-3.12c0.06-0.29,0.31-0.48,0.6-0.48h1.58v-2.75H41.51z M32,38.3c-3.47,0-6.3-2.83-6.3-6.3
		c0-3.47,2.83-6.3,6.3-6.3c3.48,0,6.3,2.83,6.3,6.3C38.3,35.47,35.48,38.3,32,38.3z" class="colordb6767 svgShape"></path><path d="M32,25.7c-3.47,0-6.3,2.83-6.3,6.3c0,3.47,2.83,6.3,6.3,6.3c3.48,0,6.3-2.83,6.3-6.3C38.3,28.53,35.48,25.7,32,25.7z
		 M32,37.31c-2.93,0-5.31-2.38-5.31-5.31s2.38-5.31,5.31-5.31s5.32,2.38,5.32,5.31S34.93,37.31,32,37.31z" fill="#000000" class="color000000 svgShape"></path><path fill="#cec5c4" d="M37.32,32c0,2.93-2.39,5.31-5.32,5.31s-5.31-2.38-5.31-5.31s2.38-5.31,5.31-5.31S37.32,29.07,37.32,32z" class="colorcec4c4 svgShape"></path></svg>