<svg xmlns="http://www.w3.org/2000/svg" viewBox="0 0 66 66" id="SecurityAccessAuthorization"><path d="M22.498 5.857a21.544 21.544 0 0 1 6.638-2.47 1 1 0 0 0 .792-1.172.996.996 0 0 0-1.17-.793 23.583 23.583 0 0 0-7.254 2.699 1.001 1.001 0 0 0 .994 1.736zM32.933 3c.185.027 5.422-.32 10.966 2.857a1 1 0 0 0 .994-1.736C38.965.728 34.084 1.153 32.908 1a1 1 0 0 0 .012 2h.013zm22.174 44.706a1.002 1.002 0 0 0-1.335.466 62.226 62.226 0 0 1-4.266 7.477 1 1 0 0 0 1.666 1.107 64.193 64.193 0 0 0 4.4-7.715.999.999 0 0 0-.465-1.334zm-1.454-30.298a1 1 0 0 0 1.62-1.174C50.313 9.4 42.22 4.972 33.214 4.972c-8.778 0-17.07 4.303-22.182 11.51a.999.999 0 1 0 1.63 1.157C17.403 10.96 25.086 6.972 33.217 6.972c8.312 0 15.826 4.08 20.437 10.436z" fill="#ff4e33" class="color000000 svgShape"></path><path d="M10.038 29.376a1 1 0 0 0 1.365-.367c.665-1.152 1.25-2.443 2.02-4.455a20.904 20.904 0 0 1 3.495-5.944 1.001 1.001 0 0 0-1.535-1.283 22.904 22.904 0 0 0-3.828 6.512c-.73 1.908-1.276 3.117-1.885 4.172a.999.999 0 0 0 .368 1.365zm8.298-14.999a1 1 0 1 0 1.28 1.536 21.354 21.354 0 0 1 10.302-4.705 1 1 0 0 0 .829-1.145.992.992 0 0 0-1.146-.83c-4.13.661-8.025 2.44-11.265 5.144zm15.433-5.425c-.552-.01-1.01.424-1.023.976s.424 1.01.976 1.024a21.199 21.199 0 0 1 10.835 3.28.999.999 0 1 0 1.069-1.69 23.198 23.198 0 0 0-11.857-3.59zM54.837 26.82c.529-.157.83-.714.674-1.243a23.035 23.035 0 0 0-6.571-10.5 1 1 0 0 0-1.352 1.474 21.039 21.039 0 0 1 6.005 9.594c.159.533.721.831 1.243.675zm-3.848 17.937c-1.716 3.768-3.578 7.017-5.858 10.227a1 1 0 0 0 1.63 1.158c2.356-3.315 4.278-6.67 6.048-10.557a1 1 0 0 0-1.82-.828zM40.56 63.751c1.07-1.115 2.783-3.158 3.755-4.375a1 1 0 1 0-1.563-1.248c-.896 1.122-2.637 3.203-3.633 4.237a1 1 0 0 0 1.441 1.386zm15.767-34.08a.999.999 0 1 0-1.988.213c.08.76.122 1.533.123 2.302 0 2.623-.472 5.182-1.405 7.606-.173.45-.347.893-.521 1.332a1 1 0 0 0 1.857.742c.179-.447.354-.898.531-1.357a23.095 23.095 0 0 0 1.538-8.324c0-.84-.046-1.687-.135-2.514z" fill="#ff4e33" class="color000000 svgShape"></path><path d="M33.215 12.918c-7.905 0-15.118 4.96-17.947 12.343-1.617 4.229-2.642 5.946-5.483 9.186a1 1 0 1 0 1.504 1.318c2.998-3.419 4.145-5.34 5.846-9.788 2.536-6.614 8.997-11.059 16.08-11.059 12.119 0 20.473 12.18 16.14 23.443-3.235 8.423-10.438 21.165-17.988 24.734a1.001 1.001 0 0 0 .855 1.809c8.187-3.871 15.532-16.797 19-25.825 4.83-12.554-4.474-26.16-18.007-26.16z" fill="#ff4e33" class="color000000 svgShape"></path><path d="M39.33 52.83a1 1 0 0 0-1.6-1.2c-2.84 3.788-5.06 6.477-8.167 7.936a1.002 1.002 0 0 0-.48 1.331c.238.503.835.712 1.332.48 3.543-1.667 5.77-4.347 8.916-8.547zM11.5 42.773c.573-1.48 1.4-2.837 2.457-4.03 1.996-2.246 3.231-3.881 4.265-5.648a1 1 0 0 0-1.726-1.01c-.962 1.645-2.131 3.189-4.035 5.33a15.27 15.27 0 0 0-2.827 4.635 1 1 0 0 0 1.866.723zM29.736 17.3a1 1 0 1 0 .46 1.946 13.235 13.235 0 0 1 10.635 2.048 1 1 0 0 0 1.144-1.641 15.243 15.243 0 0 0-12.24-2.353zm-3.972 1.553c-3.114 1.751-5.524 4.532-6.783 7.827a64.48 64.48 0 0 1-.778 1.94 1 1 0 1 0 1.842.777c.261-.62.526-1.28.804-2.001 1.093-2.862 3.187-5.276 5.896-6.799a1 1 0 0 0-.98-1.744zm14.511 30.938a1 1 0 0 0 1.382-.3c2.07-3.215 3.81-6.668 5.474-10.867a1 1 0 0 0-1.859-.737c-1.615 4.074-3.299 7.418-5.297 10.522a1 1 0 0 0 .3 1.382zm6.914-14.37a1 1 0 0 0 1.145-.83c.126-.79.19-1.6.19-2.405 0-3.403-1.12-6.82-3.422-9.636a1 1 0 1 0-1.549 1.266c2 2.445 2.97 5.41 2.97 8.37 0 .701-.056 1.404-.164 2.09a1 1 0 0 0 .83 1.144zM23.918 60.827a1 1 0 1 0 0 2c.806 0 1.62-.066 2.42-.194a.999.999 0 1 0-.316-1.975c-.695.112-1.403.169-2.104.169z" fill="#ff4e33" class="color000000 svgShape"></path><path d="M23.915 58.856c3.235 0 6.321-1.39 8.466-3.812 5.476-6.18 8.464-11.102 11.421-18.81 2.27-5.915-.76-12.676-6.968-14.773-5.803-1.961-12.022 1.098-14.147 6.644-1.994 5.208-3.554 7.776-7.255 11.951-4.031 4.543-3.742 11.416.658 15.648a11.228 11.228 0 0 0 7.825 3.152zm-6.987-17.473c3.89-4.388 5.53-7.089 7.626-12.563 1.74-4.537 6.838-7.085 11.639-5.464 5.088 1.72 7.622 7.265 5.742 12.161-2.861 7.458-5.753 12.22-11.052 18.201a9.313 9.313 0 0 1-6.968 3.138 9.24 9.24 0 0 1-6.438-2.594c-3.624-3.484-3.865-9.141-.549-12.879z" fill="#ff4e33" class="color000000 svgShape"></path><path d="M23.915 54.883H23.965a7.343 7.343 0 0 0 5.442-2.473c1.681-1.897 3.074-3.622 4.26-5.274a1 1 0 0 0-1.625-1.166c-2.92 4.07-4.649 6.624-8.127 6.913a5.284 5.284 0 0 1-3.683-1.484c-1.56-1.5-2.032-3.656-1.398-5.543a1.001 1.001 0 0 0-1.896-.637c-.87 2.592-.236 5.559 1.907 7.621a7.275 7.275 0 0 0 5.07 2.043zm-3.043-11.977c3.052-3.575 4.747-6.293 6.478-10.387a1 1 0 1 0-1.842-.78c-1.642 3.885-3.255 6.467-6.158 9.868a1 1 0 0 0 1.522 1.299zm8.02-13.83a5.305 5.305 0 0 1 6.028-1.956 5.372 5.372 0 0 1 2.638 1.924 1 1 0 1 0 1.615-1.18 7.36 7.36 0 0 0-3.613-2.638 7.307 7.307 0 0 0-8.298 2.688 1.002 1.002 0 0 0 1.63 1.163zm9.686 3.117a5.316 5.316 0 0 1-.353 1.9c-1.339 3.49-2.586 6.144-4.044 8.606a1 1 0 0 0 1.721 1.02c1.518-2.563 2.81-5.311 4.19-8.91.32-.831.484-1.71.486-2.61a1 1 0 0 0-.997-1.003h-.003a1 1 0 0 0-1 .997z" fill="#ff4e33" class="color000000 svgShape"></path><path d="M34.287 28.989a3.34 3.34 0 0 0-4.179 1.958c-2.345 6.12-4.386 9.482-8.734 14.386-1.189 1.34-1.104 3.366.225 4.644 1.39 1.336 3.585 1.208 4.834-.201 4.89-5.522 7.309-9.504 9.95-16.39a3.35 3.35 0 0 0-2.096-4.397zm.23 3.68c-2.545 6.63-4.873 10.465-9.582 15.78-.49.555-1.38.635-1.983.053a1.329 1.329 0 0 1-.082-1.842c4.534-5.113 6.66-8.617 9.105-14.998.257-.671 1.02-.993 1.62-.797l.097.034c.73.247 1.1 1.052.824 1.77z" fill="#ff4e33" class="color000000 svgShape"></path></svg>